<svg id="Layer_1" data-name="Layer 1" xmlns="http://www.w3.org/2000/svg" viewBox="0 0 240 230"><defs><style>.cls-1{fill:#333;}.cls-2{fill:#666;}.cls-3{fill:#ccc;}.cls-4{fill:#999;}</style></defs><path class="cls-1" d="M239.93,127.71c0-.18,0-.35,0-.53,0-.44-.09-.88-.16-1.32,0-.17,0-.34-.07-.51-.09-.51-.18-1-.3-1.52,0-.07,0-.14,0-.21-.15-.61-.31-1.22-.5-1.81a.25.25,0,0,1,0-.07c-.18-.56-.38-1.11-.6-1.66,0-.08-.07-.15-.1-.23-.22-.54-.45-1.07-.71-1.58l0-.09a26.19,26.19,0,0,0-2-3.32h0a28.49,28.49,0,0,0-6.31-6.44c-5.77-4.31-13.46-7-22.52-8,9.8-9.82,15.76-20.35,17.22-30.46.08-.55.15-1.11.2-1.66,0-.19,0-.38,0-.56,0-.37.06-.73.07-1.09l0-.67c0-.32,0-.64,0-1s0-.48,0-.71,0-.6,0-.9,0-.49,0-.73-.06-.55-.09-.83c-.06-.58-.14-1.16-.24-1.73l-.06-.42c-.07-.34-.14-.67-.22-1,0-.16-.06-.31-.1-.47q-.12-.51-.27-1c0-.14-.07-.27-.11-.41-.11-.35-.22-.7-.34-1l-.09-.29a27.37,27.37,0,0,0-3-6.08h0a28.37,28.37,0,0,0-3.66-4.5c-6.53-6.53-15.45-9.36-25.11-8-7.9,1.15-16.07,5.05-23.95,11.39,0-.64,0-1.28-.05-1.91,0-.31,0-.61,0-.92-.05-1.19-.13-2.37-.23-3.53a.15.15,0,0,1,0-.07c-.11-1.19-.25-2.36-.41-3.51,0-.26-.07-.51-.11-.77-.16-1.13-.34-2.26-.56-3.35h0c-.22-1.13-.47-2.24-.74-3.32l-.15-.6a59,59,0,0,0-2-6.19l-.18-.46a45,45,0,0,0-5.72-10.46C150.22,4.69,141.19,0,131.15,0s-19.08,4.69-25.43,13.19c-5.26,7-8.56,16.47-9.72,27.58-10.72-10-22-16.07-32.95-17.64C51.86,21.51,41.53,24.77,34,32.34S23.13,50.23,24.75,61.43c1.43,9.84,6.54,20,14.87,29.82l.82,1,.84.94.62.69C30.38,95,20.63,98.33,13.37,103.75,4.75,110.19,0,119.34,0,129.52s4.75,19.33,13.37,25.77a46.82,46.82,0,0,0,12.34,6.45l.73.24c.75.26,1.51.5,2.28.73l.63.18c1,.28,2,.54,3,.77l.52.11c.84.19,1.7.37,2.58.53l.88.15c.89.16,1.79.29,2.7.42l.52.07c1.08.14,2.18.25,3.29.35l.85.06c.87.07,1.75.13,2.64.17l1,0c1.16,0,2.32.07,3.5.07s2.46,0,3.69-.12c-4.38,6.18-7.11,12.5-8,18.65a26.39,26.39,0,0,0,4.6,19.73l.09.11c.22.31.45.61.69.91l.3.36c.19.22.37.45.57.66s.64.7,1,1a25.65,25.65,0,0,0,18.47,7.55,30.72,30.72,0,0,0,4.34-.32c9.17-1.33,18.72-6.73,27.62-15.63,8.2-8.21,15-20.65,18.56-34.14.14-.53.28-1.07.41-1.62l.12-.51c.1-.39.19-.78.27-1.18.05-.19.09-.38.13-.57.09-.44.18-.87.26-1.31,0-.14.06-.28.08-.41.11-.56.21-1.12.3-1.69l.09-.55c.06-.39.12-.78.17-1.17l.09-.68c0-.36.09-.73.13-1.09s.05-.43.07-.65c0-.54.1-1.07.14-1.6l0-.54c0-.37,0-.73,0-1.1s0-.47,0-.7,0-.61,0-.91,0-.47,0-.7,0-.66-.05-1,0-.49,0-.74-.07-.76-.12-1.13c0-.21-.06-.4-.09-.6s-.09-.51-.14-.76-.08-.4-.13-.59,0-.16,0-.24h0a8.82,8.82,0,0,0-2.08-4.07,11.15,11.15,0,0,0-5.94-2.74,11.63,11.63,0,0,0,2.29-6.09,7.67,7.67,0,0,0,0-.82,2.13,2.13,0,0,0,0-.25c0-.19,0-.39-.09-.59a2.61,2.61,0,0,0-.06-.27c0-.2-.08-.39-.14-.59l-.07-.25-.21-.64c0-.07,0-.14-.08-.2-.1-.26-.2-.53-.32-.79l0-.05c-.26-.56-.55-1.12-.88-1.68a11.36,11.36,0,0,0,5.6-2.69,9.17,9.17,0,0,0,1-1.16c.1-.14.19-.3.28-.45a8.55,8.55,0,0,0,.53-.88c.11-.2.2-.41.29-.61s.27-.59.39-.9L125,116c.1-.3.19-.61.28-.93l0-.13a11.16,11.16,0,0,0,5.8,2.12q.36,0,.72,0h0l.43-.06.31,0,.41-.08.33-.07.4-.11.35-.1.4-.14.35-.13.39-.17.36-.15.4-.19.36-.18.39-.22.37-.21.33-.2A10.83,10.83,0,0,0,140,120.7a12,12,0,0,0,6.17,2.91c-1.6,2.15-2.51,4.18-2.51,5.91a11.67,11.67,0,0,0,2.61,6.62c-2.83.24-5,1-6.27,2.21-4.85,4.85-1.77,17.54-.71,21.32a64,64,0,0,0,13.13,24.72h0a13.86,13.86,0,0,0,1.88,2c7.07,7.07,14.67,11.37,22,12.43a23.16,23.16,0,0,0,3.49.26A20.65,20.65,0,0,0,194.63,193a21.06,21.06,0,0,0,5.83-18.37c-.1-.7-.25-1.42-.41-2.13,0-.07,0-.15-.05-.22-.17-.73-.38-1.46-.61-2.19h0a39,39,0,0,0-6-11.31c1.8.16,3.58.26,5.32.26,12.49,0,23-2.91,30.37-8.42,7.05-5.27,10.94-12.76,10.94-21.1C240,128.91,240,128.31,239.93,127.71Zm-13.81,19c-6.52,4.87-16,7.44-27.43,7.44a58.7,58.7,0,0,1-10.12-.93l-.54-.56c-9.46-9.45-24.25-15.09-35.15-16.34-2.38-2.3-3.79-4.35-4.21-5.89,0-.15-.07-.29-.09-.42a4,4,0,0,1-.05-.47c0-1.21,1.29-3.14,3.56-5.4a67.31,67.31,0,0,0,17-2.68A90.79,90.79,0,0,0,201.48,105c10.19.39,18.66,2.92,24.64,7.38.36.27.71.54,1,.83s.37.32.56.48l.42.37.72.69.2.19c.26.28.52.55.77.83l.08.09c.26.3.52.61.77.93h0a20.11,20.11,0,0,1,2,3h0a20.27,20.27,0,0,1,2.41,9.73C235.09,136.37,232,142.31,226.12,146.69Zm-49,3.52a80.62,80.62,0,0,1-13-5.84l-1.44-.84A62,62,0,0,1,177.1,150.21Zm-33.66-33c-.85-.85-1.35-2.91-1.46-5.82l.07-.06.37-.36.37-.37.37-.37.37-.39c.13-.12.25-.26.37-.39l.37-.39.37-.41.36-.41.37-.42.35-.42.37-.43.35-.43.36-.45.34-.43.36-.46.34-.45.36-.48.32-.43.36-.5.32-.44.36-.51.3-.44.36-.53.29-.42.37-.56.27-.41.36-.56c.09-.14.18-.28.26-.42s.23-.36.34-.55l.27-.43.34-.56c.09-.14.17-.28.25-.42s.24-.41.36-.61.15-.25.22-.37l.56-1C161.28,82.39,165.72,68,166.6,54.86c8.2-7.42,16.71-11.93,24.81-13.1a28.44,28.44,0,0,1,4.16-.31c.73,0,1.43,0,2.14.1.21,0,.41,0,.62.06.53.06,1,.13,1.56.22l.58.1c.65.13,1.28.28,1.91.46l.6.2c.44.14.88.29,1.3.45l.76.31c.41.18.82.37,1.22.58s.5.24.74.38a23.46,23.46,0,0,1,5.34,4c5.49,5.48,7.76,12.72,6.57,20.93C217.59,78.33,212.09,87.93,203,97q-1.55,1.53-3.25,3l-1.07,0c-18,0-38.28,9.89-48.46,19.19C146.86,119,144.51,118.3,143.44,117.23Zm-1-13.58c1.55-12.31,7.26-30.22,18.71-43.26C158.59,78.11,150.14,94.27,142.4,103.65Zm50.46,1.6a88.29,88.29,0,0,1-25.06,11.47,74.83,74.83,0,0,1-9.08,2C167.08,112.8,179.66,106.71,192.86,105.25Zm-79.1,24.27c0,1.19-1.07,3.2-3.25,5.69a61.9,61.9,0,0,0-14.67,2.4c-13.08,3.67-25.38,10.57-33.74,18.93-1.22,1.22-2.36,2.45-3.44,3.68a65.07,65.07,0,0,1-7.88.51c-14.34,0-26.26-3.24-34.47-9.37A28.71,28.71,0,0,1,7.51,141c-.21-.44-.41-.88-.6-1.33h0c-.19-.45-.36-.9-.52-1.35l0,0c-.15-.44-.3-.88-.43-1.32l0-.15q-.18-.63-.33-1.26l-.06-.28c-.08-.39-.16-.77-.23-1.17,0-.15,0-.31-.07-.46,0-.34-.1-.68-.14-1s0-.5-.07-.76L5,131.09c0-.52,0-1,0-1.57,0-8.71,3.94-16.27,11.4-21.83.48-.37,1-.72,1.5-1.06l.55-.36,1-.64.71-.41.94-.52.81-.42.89-.44.91-.43.85-.37c.34-.14.68-.29,1-.42l.78-.3,1.15-.43.64-.22,1.35-.44.28-.08A64.14,64.14,0,0,1,39.58,99h.12l2.07-.25.17,0,2.11-.19h.14c.73,0,1.47-.1,2.22-.13C57,108.38,72.4,116.55,89.06,121a85.53,85.53,0,0,0,20.74,3.08c.46,0,.91,0,1.35,0C112.83,126.16,113.76,128.05,113.76,129.52ZM53.84,98.38h0l1.2.07,1.13.07,1.46.13c.39,0,.77.07,1.16.12s1.06.11,1.58.18,1.33.18,2,.29l1.17.19,1.49.27,1,.21c.78.16,1.56.32,2.34.5l.78.19c15.48,3.76,29.08,11.49,37.06,18.42a83.48,83.48,0,0,1-15.94-2.78c-13.86-3.7-26.77-10.06-36.48-17.87Zm50.82,42.31a84.58,84.58,0,0,1-10.61,7.18,100.51,100.51,0,0,1-27.18,10.89c7.74-7.22,18.67-13.17,30.29-16.43A69.18,69.18,0,0,1,104.66,140.69Zm-8.18-34.43c-14.54-8.17-31.19-12.85-45.7-12.85-.83,0-1.65,0-2.47,0-10.69-10.7-17.15-22-18.7-32.72-.08-.5-.13-1-.18-1.5h0q-.09-.78-.12-1.56c0-.06,0-.12,0-.18,0-.48,0-.95,0-1.42v-.29q0-.68,0-1.32c0-.13,0-.25,0-.37,0-.42.05-.83.09-1.24,0-.14,0-.28,0-.42,0-.39.1-.78.15-1.16,0-.16.05-.32.08-.48.06-.36.13-.72.2-1.08l.12-.52c.07-.35.16-.69.25-1l.15-.56.3-1c.06-.19.13-.38.2-.58s.22-.6.34-.9l.25-.6c.12-.29.24-.57.37-.84s.21-.43.32-.64.26-.52.4-.78l.37-.66c.14-.24.28-.48.43-.72s.3-.45.45-.68.28-.44.43-.66.37-.48.55-.73l.43-.57.69-.82.37-.44c.37-.41.75-.82,1.15-1.21a27.48,27.48,0,0,1,20-8.19,35.22,35.22,0,0,1,5,.36C73.08,29.54,84.42,36,95.15,46.75l.41.43c0,1,0,1.93,0,2.91,0,23.47,13.66,50,25.51,61.33-.38,2.78-1.14,4.78-2.17,5.81-.79.79-2.67,1.44-5.5,1.74C109,114.24,102.63,109.71,96.48,106.26Zm23.8-2.94-.18-.22c-.39-.48-.78-1-1.17-1.5l-.28-.39c-.4-.53-.8-1.08-1.21-1.65l-.17-.26c-.38-.54-.76-1.1-1.14-1.67-.08-.12-.16-.23-.23-.35-.42-.63-.83-1.28-1.25-2l-.26-.43c-.44-.71-.87-1.43-1.3-2.18-7.52-13-12-27.39-12.61-40l.18.21c.39.49.77,1,1.15,1.49.19.26.39.51.59.77.42.57.84,1.16,1.25,1.75l.43.59c.45.66.89,1.33,1.33,2l.29.43c.47.73.93,1.47,1.39,2.22l.18.29c.48.79,1,1.6,1.41,2.42l.09.15q.72,1.29,1.41,2.61l0,0a106.5,106.5,0,0,1,8,20h0c.05.17.11.35.16.53a76,76,0,0,1,2.86,16.23C120.92,104.1,120.6,103.72,120.28,103.32ZM118,163.16c-3.38,12.68-9.68,24.32-17.29,31.94-8.15,8.14-16.74,13.07-24.85,14.24-7.31,1.07-13.76-1-18.64-5.84a20.7,20.7,0,0,1-3.92-5.39h0c-.24-.48-.47-1-.67-1.48h0a21.21,21.21,0,0,1-1-3.08l0-.14c-.1-.46-.19-.94-.26-1.41a1.43,1.43,0,0,0,0-.22,23.84,23.84,0,0,1-.22-3.19c0-.13,0-.26,0-.39,0-.41,0-.83,0-1.24l0-.45c0-.54.1-1.09.18-1.64,1-6.53,4.33-13.38,9.87-20.05,20.61-3.11,41.54-14.52,51.5-24.73,2.81.1,5,.62,6.16,1.73a3.4,3.4,0,0,1,.21.28l.12.19h0C120.47,144.57,120.9,152.09,118,163.16Zm8.21-53.7v-.09c0-.35,0-.7,0-1.06a.28.28,0,0,0,0-.09v0c.18-6.6-1.18-14.42-3.12-21.33C118.63,71,110.48,56,100.55,45.3c.65-12,3.76-22,9.1-29.17,5.48-7.34,12.92-11.22,21.5-11.22.68,0,1.36,0,2,.08l.52,0c.59.06,1.18.13,1.76.23l.23,0c.68.12,1.34.26,2,.43l.3.08c.6.16,1.2.34,1.79.55l.17.06a25.62,25.62,0,0,1,3.88,1.78l.06,0a26.52,26.52,0,0,1,3.64,2.51,30.3,30.3,0,0,1,5.12,5.39c6,8.09,9.23,19.83,9.23,34,0,.84,0,1.68-.05,2.51-.55.52-1.1,1-1.64,1.59-14.77,14.77-23,39.8-23.16,55a20,20,0,0,1-1.64,1.23c-.2.14-.41.29-.61.41l-.38.21c-.2.12-.41.25-.6.34l-.07,0a7.25,7.25,0,0,1-1.29.5,4.41,4.41,0,0,1-1.28.22C130.07,112.13,128.33,111.26,126.16,109.46Zm16.53,43.12a26.87,26.87,0,0,1-.29-7.9.77.77,0,0,0,0-.15l.09-.47a1.16,1.16,0,0,1,0-.18c0-.19.08-.36.13-.52a3.37,3.37,0,0,1,.1-.34,1.67,1.67,0,0,1,.08-.2c0-.09.07-.18.1-.26l.08-.15a1.26,1.26,0,0,1,.13-.23l.06-.11a2,2,0,0,1,.21-.26c.46-.45,2.12-.87,4.82-.87.77,0,1.64,0,2.58.12a58.72,58.72,0,0,0,6.77,5.1h0l.33.21,1.32.82.58.36c.62.38,1.25.74,1.87,1.09a83.68,83.68,0,0,0,24.39,9.08c.22.24.45.48.66.72l.33.38.69.79.3.38c.22.27.45.54.66.81l.26.34.64.84c.08.1.15.21.22.31l.62.88.19.27c.2.31.41.61.6.92l.15.23c.2.32.39.64.58,1l.11.19c.19.33.37.66.55,1l.08.16c.18.35.36.69.52,1l.06.12c.17.35.33.71.49,1.06l0,.09c.16.36.31.72.44,1.08l0,.06q.21.55.39,1.11v0c.12.37.24.75.34,1.12v0c.1.37.2.75.28,1.12h0c.09.37.16.75.22,1.12h0a16.06,16.06,0,0,1-4.4,14.68c-8.15,8.14-21.27,5.55-33.43-6.61-6-6.05-11.06-15-13.75-24.59A53.85,53.85,0,0,1,142.69,152.58Z"/><path class="cls-2" d="M235.09,95.62c4.37-4.16-1-11.68-6.21-10C213.49,61,181.64,45.7,152.15,53.8c-14-8.32-36.13-9.9-43,8.67-6.16,3.78-14.73,14-15.27,22.46,0,0-11.4,7.28-9.73,20.48,0,0-28.79-20.58-35.58-23.63s-8.67,1.38-6.11,10.44c-5.89,7.16-4.15,30.74,3.84,36.54,0,0-9.75,8-8.57,19.9-.58.09-12.79,16.74-6.25,19,12.34,8.07,34.31,9.19,52.25.54,0,0-2.56,16.94,16.5,13.4,0,0,9.75,6.69,21.52,2.61,0,0,12.22,6.5,21.48-5.18,20-1.38,98-23.75,89.63-71.65C236.57,106.88,239.83,98.75,235.09,95.62Z"/><path class="cls-3" d="M167.05,145.7c.07-.18.15-.36.21-.55s-.07,0-.55-.23a1,1,0,0,0-.34-.2c-.14-.09-.31-.22-.51-.38a1.65,1.65,0,0,0-.28-.78v-.09h0c-.1-1-1.22-1.69-2.48-2-.84-.92-1.72-2-2.47-2.87-1.84-2.4-3.11-4.51-3.85-5.68,0-.13-.09-.32-.37-.56a1.82,1.82,0,0,0-.32-.4c-.56-.29-1.13-.57-1.69-.84-.88-.44-2-.93-3.35-1.46A78.5,78.5,0,0,0,136,125.41c-5.37-1.21-11.21-2.13-16-1.85-5.85.18-8.68,2.37-9.43,5.53l0,.1a7.39,7.39,0,0,0-.15,1c0,.21,0,.42,0,.64v.37a12.72,12.72,0,0,0,.21,2.2c.51,3.65,2.93,7.68,5.83,11.25a41.89,41.89,0,0,0,8.51,8.25,10.33,10.33,0,0,0,1.25,3.63,14.5,14.5,0,0,0,1.18,1.75c.26.33.52.64.8.95,2.84,3.09,6.94,5,10,4a4.5,4.5,0,0,0,1.21-.58,4.87,4.87,0,0,0,4.93,3.53,5.7,5.7,0,0,0,1.37,0l.63-.25a22.59,22.59,0,0,0,7-3.6,37.15,37.15,0,0,0,10.4-10C165.81,149.49,167.14,147.05,167.05,145.7Z"/><path class="cls-4" d="M211.16,151.35c1.44-3.74,1.16-7.13-.32-9.27l-4.6,3.34L205.08,140c-2.45.68-4.83,3-6.22,6.64-2,5.29,2.12,12.87,2.12,12.87S209.14,156.65,211.16,151.35Z"/><path class="cls-4" d="M201.32,165.68a8.93,8.93,0,0,0-2-4.69,8.47,8.47,0,0,0-1.84-1.32c-.16-2.19-.95-8.51-4.56-11.43-3.11-2.52-6.43-3.3-8.92-2.56l1.76,5.42-5.52-.58c-.11,2.54,1.36,5.52,4.39,8a7.54,7.54,0,0,0,.87.61c-3.24.16-6.44.66-7.78,2.37-4.4-1.7-9-1.62-12.49.85-2.57-2.92-5.86-2.57-9-2.73-7-.26-8.79,5.72-8,12-2.39-5.43-2.22-13-10.87-13.15-3.63.07-7.65.66-9.76,2.63-5.19-4-12.13-2.51-14.07,2.35-2.5-5.26-8-5.94-14.07-3.12-4.33-2.79-10.48-.75-14.91-1-8.3-.62-10.34,11.07-4.94,15.25l-.19,4.81c-3.11-6.12-3.9-21.5-13.57-20.88-3.83.13-8.05.47-10.55,3.44-2.93-3.29-16.69-2.27-20.76-3-5.37-.5-9,2.47-9,8.39-.61,4.49.85,10.87,6.91,11,.25,2.7-.47,6.89-.37,10.68l-2.9-2.11c-1.48,2.14-1.76,5.53-.32,9.27,2,5.3,10.18,8.16,10.18,8.16a26.27,26.27,0,0,0,2.36-6.55,13.6,13.6,0,0,0,2.86-.61,25.17,25.17,0,0,0-1.73,8.1s8.49,1.61,12.9-2c2.76-2.23,4.21-4.89,4.37-7.27,2.47-.82,4.45-2.28,4.87-4.2,1.27,5.41,9.56,6.58,15.14,3.69,2.91,1.32,9.34,1.43,12.54,1.76,4.6,0,7.32-2.81,7.65-7.91.18-1.89.47-5.12-2.15-7.41l.43-6.21,4.4,5.74c0,6.37-1.13,16.83,8,16.35,3.43,0,8-.59,9.66-3.27,3.68,4.06,14.84,2.12,15.88-2.74.63,2.85,4.28,5.77,9.16,5.08,1.93-.19,3.7.15,6.27-1.59,3.51,2.74,10.67,3.4,12.7-1.52,3,3.87,9.23,3.7,12.53.32,2.86,3.08,10.52,2.62,14.52,3.16,4.61,0,7.33-2.81,7.65-7.91.18-1.88.48-5.12-2.14-7.41l.3-4.43c0,.16.05.32.09.47,1,3.86,3.26,6.45,5.72,7.31l1.75-5.41,4.13,3.71c1.59-2,2.14-5.27,1.13-9C208.75,170,203.2,166.69,201.32,165.68Zm-26.93,12.2,3.08-4a6.67,6.67,0,0,0,.79.71l-.23,5.69a6.87,6.87,0,0,0-.68.48Z"/><path class="cls-4" d="M222.77,160.41c-1.4-2.12-4.35-3.67-8.23-3.87-5.66-.29-11.59,6-11.59,6s5.25,6.87,10.91,7.17c4,.2,7.14-1.11,8.72-3.18L218,163.19Z"/><path class="cls-4" d="M30,219.27c-1,3.76-.46,7,1.13,9l4.13-3.71L37.05,230c2.46-.86,4.68-3.45,5.72-7.31,1.47-5.48-3.45-12.59-3.45-12.59S31.51,213.79,30,219.27Z"/><path class="cls-4" d="M37.05,207.29s-5.93-6.29-11.59-6c-3.88.2-6.83,1.75-8.23,3.87l4.8,2.78-4.61,3.34c1.58,2.07,4.73,3.38,8.72,3.18C31.8,214.16,37.05,207.29,37.05,207.29Z"/><path class="cls-4" d="M166.56,203.62a7.15,7.15,0,0,0-7.12-5.38c-3.33.14-7,.44-9,4-2.14-3.11-12.23-5-17.37-2.82-3.31-1.3-5.3-1.36-8.74.8-3.36-2.36-8.4-2.27-10.68-.31-2.59-.47-5.18-.53-7.36.62-3.41-2.16-10-2.6-12.37,1.91-1.84-5.55-13.79-6-16.21,1C75,193.18,53.9,198.1,54.9,209c-4.82-2.35-12.2-.15-12.2-.15s1.09,8.57,5.85,11.66a11.47,11.47,0,0,0,7.11,2.1c3.41,4.9,14.44,6.51,19.62,3,2.37,2.15,9,1.57,11.09-.7,2,2.54,6.92,2.83,10.49,1.35,2.62,1.51,6.78,1.85,8.89-.6,2.93,2.59,7.63,1,9.94-1.46a10.75,10.75,0,0,0,8.18,3.77,10.5,10.5,0,0,0,7.11-2.64c2.41,3.05,7.07,2.51,10.36.71,1.91,1.6,5.2,1.32,7.09.19,2.83,1.39,8.13.73,10.12-1.32,4.51,4.91,16.59,1.71,13.08-6.68Z"/></svg>