<svg xmlns="http://www.w3.org/2000/svg" viewBox="0 0 75 75"><path d="M75,38.12a1.5,1.5,0,0,1-.36,1l-3.32,4a1.55,1.55,0,0,1-1.2.56,1.6,1.6,0,0,1-1-.35L38.5,18.13a1.59,1.59,0,0,0-2,0L5.88,43.36a1.57,1.57,0,0,1-2.2-.22l-3.32-4a1.59,1.59,0,0,1-.36-1,1.54,1.54,0,0,1,.57-1.2l33-27.15a6.26,6.26,0,0,1,7.94,0l11.65,9.6V9.9a1.56,1.56,0,0,1,1.57-1.56H62A1.56,1.56,0,0,1,63.54,9.9v18l10.88,9A1.52,1.52,0,0,1,75,38.12Zm-37.5-15a1.58,1.58,0,0,1,1,.35l24,19.76V64.58a2.08,2.08,0,0,1-2.08,2.08l-14.59,0a2.08,2.08,0,0,1-2.08-2.08h0V52.08A2.09,2.09,0,0,0,41.66,50H33.33a2.08,2.08,0,0,0-2.08,2.08V64.54a2.08,2.08,0,0,1-2.07,2.08l-14.6,0a2.08,2.08,0,0,1-2.08-2.08V43.24l24-19.77A1.57,1.57,0,0,1,37.5,23.12Z"/></svg>
