<svg id="Layer_1" data-name="Layer 1" xmlns="http://www.w3.org/2000/svg" viewBox="0 0 32 32"><defs><style>.cls-1{fill:#f1949b;}.cls-2{fill:#e06460;}.cls-3{fill:#f6acb5;}.cls-4{fill:#fceaec;}</style></defs><path class="cls-1" d="M18.05,1.2,15.91,4.48l-2.07-3.2c-1.42,1-2.38,3.12-2.38,5.8,0,3.9,4.52,7.76,4.52,7.76S20.53,11,20.54,7.09C20.54,4.33,19.53,2.21,18.05,1.2Z"/><path class="cls-2" d="M16,15.25l-.2-.17c-.19-.16-4.64-4-4.64-8,0-2.63.94-4.9,2.51-6.05l.27-.19,2,3.07L18,.76l.27.18c1.65,1.13,2.63,3.43,2.62,6.15,0,4-4.47,7.83-4.66,8ZM13.76,1.74a7.09,7.09,0,0,0-2,5.34c0,3.24,3.35,6.54,4.22,7.33.87-.79,4.23-4.08,4.23-7.32a6.92,6.92,0,0,0-2.09-5.44L15.91,5.06Z"/><path class="cls-1" d="M1.64,10.12,4.1,13.17l-3.7,1c.56,1.67,2.24,3.22,4.78,4.06C8.9,19.42,14,16.3,14,16.3s-2.25-5.51-6-6.72C5.38,8.72,3.05,9,1.64,10.12Z"/><path class="cls-1" d="M5,28.49l3.67-1.4L8.5,30.91c1.75,0,3.75-1.13,5.33-3.3,2.3-3.15.9-8.94.9-8.94s-5.93.44-8.23,3.59C4.87,24.49,4.44,26.8,5,28.49Z"/><path class="cls-1" d="M23.57,30.92,23.37,27l3.56,1.37c.54-1.67.09-3.92-1.48-6.09-2.29-3.16-8.23-3.62-8.23-3.62s-1.41,5.79.88,9C19.71,29.85,21.78,31,23.57,30.92Z"/><path class="cls-1" d="M31.61,14.06l-3.79-1,2.41-3c-1.42-1-3.7-1.29-6.25-.47-3.71,1.2-6,6.71-6,6.71s5.06,3.13,8.77,1.93C29.4,17.39,31.1,15.78,31.61,14.06Z"/><path class="cls-2" d="M11.34,17.91c-1.82.69-4.21,1.26-6.25.6-2.51-.82-4.37-2.41-5-4.26L0,13.93,3.55,13,1.19,10.06l.25-.19C3,8.65,5.51,8.43,8.1,9.28c3.81,1.24,6.06,6.67,6.16,6.9l.1.25-.23.14A17.83,17.83,0,0,1,11.34,17.91ZM.82,14.37a7.09,7.09,0,0,0,4.46,3.54c3.09,1,7.25-1.16,8.28-1.74-.48-1.08-2.57-5.29-5.65-6.29a6.92,6.92,0,0,0-5.82.3l2.56,3.17Z"/><path class="cls-2" d="M10.31,30.86a5.07,5.07,0,0,1-1.81.36H8.17l.19-3.66L4.85,28.9l-.1-.31c-.67-1.88-.11-4.31,1.49-6.51,2.36-3.24,8.22-3.71,8.47-3.72l.27,0,.06.26c.06.24,1.41,6-.95,9.2A8.64,8.64,0,0,1,10.31,30.86Zm-1.48-.29a7.07,7.07,0,0,0,4.75-3.14c1.91-2.63,1.14-7.26.9-8.42-1.17.14-5.82.82-7.73,3.44a6.9,6.9,0,0,0-1.5,5.62l3.8-1.45Z"/><path class="cls-2" d="M23.9,31.23h-.33c-2,.05-4.13-1.23-5.73-3.44-2.35-3.24-1-9-.92-9.2l.06-.26.27,0c.25,0,6.11.51,8.45,3.75,1.55,2.14,2.12,4.51,1.53,6.37l-.1.32-3.42-1.32ZM17.47,19c-.23,1.15-1,5.79.88,8.41a6.91,6.91,0,0,0,4.89,3.17L23,26.54,26.72,28a7.06,7.06,0,0,0-1.53-5.48C23.29,19.85,18.65,19.15,17.47,19Z"/><path class="cls-2" d="M27.41,18.35l-.54.19c-3.81,1.23-8.83-1.84-9-2l-.22-.14.1-.24c.09-.23,2.39-5.67,6.18-6.89,2.51-.81,4.95-.62,6.53.51l.27.2-2.32,2.85,3.63,1-.09.31A7.05,7.05,0,0,1,27.41,18.35Zm-9-2.17c1,.58,5.19,2.76,8.28,1.76a7,7,0,0,0,4.52-3.66l-3.93-1.06,2.5-3.08a7.09,7.09,0,0,0-5.69-.24C21,10.88,18.89,15.1,18.4,16.18Z"/><path class="cls-3" d="M19.78,6.76c.12,1.86-2,6.06-3.6,6.67-1,.39-3.71-3.81-1.83-3.48C17.44,10.5,19.57,3.39,19.78,6.76Z"/><path class="cls-3" d="M26.92,17.4c-1.74.67-6.38-.08-7.45-1.43-.67-.86,2.53-4.69,2.78-2.8C22.65,16.28,30.07,16.2,26.92,17.4Z"/><path class="cls-3" d="M19.54,27.68c-1.3-1.34-2.42-5.9-1.59-7.41.52-1,5.3.5,3.66,1.46C18.9,23.32,21.88,30.11,19.54,27.68Z"/><path class="cls-3" d="M12.82,27.37c1.22-1.4,2.11-6,1.21-7.48-.57-.94-5.27.76-3.58,1.64C13.23,23,10.6,29.92,12.82,27.37Z"/><path class="cls-3" d="M4.9,17.41c1.72.72,6.38.08,7.48-1.24.7-.84-2.41-4.75-2.7-2.87C9.19,16.4,1.78,16.13,4.9,17.41Z"/><path class="cls-4" d="M18.73,3.05s1.47,2.8.94,4.3S17.43.61,18.73,3.05Z"/><path class="cls-4" d="M23.83,10.73s3-1.12,4.39-.41S21.26,11.71,23.83,10.73Z"/><path class="cls-4" d="M19.31,20.38s3.15.23,4.14,1.48S16.55,20.18,19.31,20.38Z"/><path class="cls-4" d="M13.22,20.34s-2.57,1.85-4.13,1.54S15.45,18.72,13.22,20.34Z"/><path class="cls-4" d="M11.73,15.11s-2.48-2-2.59-3.57S13.88,16.83,11.73,15.11Z"/><path class="cls-2" d="M12.63,8.3a8.75,8.75,0,0,0,.83,2.17,9.29,9.29,0,0,0,1.93,2.73c.36.35.18-.4-1.16-2.79C13,8.26,12.15,6.4,12.63,8.3Z"/><path class="cls-2" d="M20.27,16.57a8.37,8.37,0,0,0,2.19.76,9.19,9.19,0,0,0,3.33.29c.5,0-.19-.38-2.88-.92C20.51,16.23,18.51,15.71,20.27,16.57Z"/><path class="cls-2" d="M18.21,25.75A5.46,5.46,0,0,0,19.42,28c.88,1.05,2.92,2.3,2.62,1.9a18.23,18.23,0,0,0-1.88-2.14C18.5,25.93,17.81,23.89,18.21,25.75Z"/><path class="cls-2" d="M11.36,29.07A4.94,4.94,0,0,0,13,27.37a7.87,7.87,0,0,0,1.21-3.14c.13-.58-.23.15-1.65,2.5C11.31,28.83,9.64,30,11.36,29.07Z"/><path class="cls-2" d="M4.33,17.24a5,5,0,0,0,2.32.51A7.94,7.94,0,0,0,10,17.13c.56-.19-.25-.12-3-.09C4.51,17.07,2.63,16.27,4.33,17.24Z"/></svg>