<svg xmlns="http://www.w3.org/2000/svg" viewBox="0 0 16 16"><path d="M9,.38,7.94,2.07,6.88.42a3.62,3.62,0,0,0-1.22,3c0,2,2.33,4,2.33,4s2.33-2,2.33-4A3.56,3.56,0,0,0,9,.38Z"/><path d="M.63,5,1.89,6.53,0,7A3.62,3.62,0,0,0,2.45,9.11c1.91.62,4.51-1,4.51-1S5.8,5.3,3.89,4.68A3.58,3.58,0,0,0,.63,5Z"/><path d="M2.39,14.38l1.88-.72-.1,2A3.65,3.65,0,0,0,6.9,13.93c1.17-1.62.45-4.59.45-4.59s-3,.23-4.22,1.85A3.56,3.56,0,0,0,2.39,14.38Z"/><path d="M11.89,15.62l-.1-2,1.83.7a3.62,3.62,0,0,0-.77-3.12C11.67,9.57,8.63,9.34,8.63,9.34s-.72,3,.45,4.59A3.6,3.6,0,0,0,11.89,15.62Z"/><path d="M16,7l-1.94-.52,1.23-1.52a3.64,3.64,0,0,0-3.2-.24C10.18,5.3,9,8.13,9,8.13s2.6,1.6,4.51,1A3.58,3.58,0,0,0,16,7Z"/></svg>
